<svg width="21" height="21" viewBox="0 0 21 21" fill="none" xmlns="http://www.w3.org/2000/svg">
<path d="M18.375 3.9375H2.625C2.27703 3.9379 1.94342 4.07631 1.69736 4.32236C1.45131 4.56842 1.3129 4.90203 1.3125 5.25V7.21875C1.3129 7.56672 1.45131 7.90033 1.69736 8.14639C1.94342 8.39244 2.27703 8.53085 2.625 8.53125V15.75C2.6254 16.098 2.76381 16.4316 3.00986 16.6776C3.25592 16.9237 3.58953 17.0621 3.9375 17.0625H17.0625C17.4105 17.0621 17.7441 16.9237 17.9901 16.6776C18.2362 16.4316 18.3746 16.098 18.375 15.75V8.53125C18.723 8.53085 19.0566 8.39244 19.3026 8.14639C19.5487 7.90033 19.6871 7.56672 19.6875 7.21875V5.25C19.6871 4.90203 19.5487 4.56842 19.3026 4.32236C19.0566 4.07631 18.723 3.9379 18.375 3.9375ZM12.4688 11.8125H8.53125C8.3572 11.8125 8.19028 11.7434 8.06721 11.6203C7.94414 11.4972 7.875 11.3303 7.875 11.1562C7.875 10.9822 7.94414 10.8153 8.06721 10.6922C8.19028 10.5691 8.3572 10.5 8.53125 10.5H12.4688C12.6428 10.5 12.8097 10.5691 12.9328 10.6922C13.0559 10.8153 13.125 10.9822 13.125 11.1562C13.125 11.3303 13.0559 11.4972 12.9328 11.6203C12.8097 11.7434 12.6428 11.8125 12.4688 11.8125ZM18.375 7.21875H2.625V5.25H18.375L18.3758 7.21875H18.375Z" fill="#2E2E2E"/>
</svg>
