<svg width="19" height="19" viewBox="0 0 19 19" fill="none" xmlns="http://www.w3.org/2000/svg">
<g clip-path="url(#clip0_358_2)">
<path fill-rule="evenodd" clip-rule="evenodd" d="M9.57526 0.432211L9.31741 0.28125L9.06231 0.436822L0.56543 5.61864L1.0861 6.4724L9.32788 1.44615L17.921 6.47701L18.4262 5.61403L9.57526 0.432211ZM9.59275 3.46567L9.32264 3.29227L9.05253 3.46567L2.32584 7.78385L2.09595 7.93143V8.20461V18.1364V18.6364H2.59595H7.19844H11.4469H16.0494H16.5494V18.1364V8.20461V7.93143L16.3195 7.78385L9.59275 3.46567ZM3.09595 8.4778L9.32264 4.48059L15.5494 8.4778V17.6364H11.9469V13.3864V12.8864H11.4469H7.19844H6.69844V13.3864V17.6364H3.09595V8.4778ZM10.9469 13.8864V17.6364H7.69844V13.8864H10.9469Z" fill="#2E2E2E"/>
</g>
<defs>
<clipPath id="clip0_358_2">
<rect width="19" height="19" fill="white"/>
</clipPath>
</defs>
</svg>
