<svg width="21" height="21" viewBox="0 0 21 21" fill="none" xmlns="http://www.w3.org/2000/svg">
<path d="M13.0741 2C12.1387 2.00068 11.2168 2.2226 10.3836 2.64763C9.55042 3.07266 8.82958 3.68875 8.27996 4.44557C7.73034 5.2024 7.36754 6.07851 7.22119 7.00233C7.07484 7.92615 7.14908 8.87149 7.43786 9.76114L3.17354 14.0254C3.06243 14.1365 3 14.2873 3 14.4444V17.4074C3.00001 17.5646 3.06244 17.7153 3.17357 17.8264C3.28471 17.9376 3.43543 18 3.59259 18H6.55556C6.71272 18 6.86344 17.9376 6.97457 17.8264C7.0857 17.7153 7.14814 17.5646 7.14815 17.4074V16.2222H8.33333C8.4905 16.2222 8.64122 16.1598 8.75235 16.0486C8.86348 15.9375 8.92592 15.7868 8.92593 15.6296V14.4444H10.1111C10.2683 14.4444 10.419 14.382 10.5302 14.2709L11.2389 13.5621C12.0536 13.8274 12.9161 13.9128 13.7671 13.8125C14.618 13.7122 15.437 13.4286 16.1678 12.9812C16.8986 12.5339 17.5236 11.9334 17.9999 11.2212C18.4762 10.5089 18.7924 9.70191 18.9267 8.85569C19.061 8.00947 19.0103 7.14419 18.7779 6.31948C18.5456 5.49477 18.1372 4.73025 17.5809 4.0786C17.0246 3.42695 16.3336 2.90367 15.5555 2.54482C14.7775 2.18598 13.9309 2.0001 13.0741 2ZM14.5554 7.62963C14.321 7.62963 14.0918 7.56012 13.8969 7.42989C13.702 7.29966 13.5501 7.11456 13.4604 6.89799C13.3707 6.68143 13.3472 6.44313 13.393 6.21323C13.4387 5.98332 13.5516 5.77214 13.7173 5.60639C13.8831 5.44064 14.0943 5.32776 14.3242 5.28203C14.5541 5.2363 14.7924 5.25977 15.0089 5.34948C15.2255 5.43918 15.4106 5.59109 15.5408 5.78599C15.6711 5.98089 15.7406 6.21004 15.7406 6.44444C15.7406 6.75877 15.6157 7.06023 15.3934 7.28249C15.1712 7.50476 14.8697 7.62963 14.5554 7.62963Z" fill="#2E2E2E"/>
</svg>
