<svg version="1.0" xmlns="http://www.w3.org/2000/svg" width="32.000000pt" height="32.000000pt"
     viewBox="0 0 32.000000 32.000000" preserveAspectRatio="xMidYMid meet">
    <g transform="translate(0.000000,32.000000) scale(0.100000,-0.100000)" fill="#000000" stroke="none">
        <path d="M108 284 c-31 -16 -58 -62 -58 -96 1 -37 35 -100 74 -137 l36 -35 36 35 c39 37 73 100 74 137 0 56 -57 113 -112 112 -13 -1 -35 -7 -50 -16z m82 -69 c26 -32 -13 -81 -47 -59 -23 14 -28 41 -13 59 16 19 44 19 60 0z"/>
    </g>
</svg>
