<svg width="21" height="21" viewBox="0 0 21 21" fill="none" xmlns="http://www.w3.org/2000/svg">
<path d="M17.7188 17.0625H9.45935L16.2137 10.3081L16.2141 10.3077L16.2144 10.3073L18.3749 8.14685C18.4968 8.02499 18.5935 7.8803 18.6595 7.72106C18.7255 7.56182 18.7594 7.39114 18.7594 7.21877C18.7594 7.0464 18.7255 6.87572 18.6595 6.71647C18.5936 6.55722 18.4969 6.41253 18.375 6.29065L14.7093 2.62488C14.4629 2.37917 14.1292 2.2412 13.7812 2.24121C13.4332 2.24123 13.0995 2.37923 12.8531 2.62496L3.00936 12.4688C2.88191 12.5962 2.78215 12.7486 2.71635 12.9164C2.7096 12.9327 2.70391 12.9494 2.69854 12.9662C2.65013 13.1046 2.62527 13.2501 2.625 13.3968V17.0625C2.6254 17.4104 2.76381 17.744 3.00986 17.9901C3.25592 18.2362 3.58953 18.3746 3.9375 18.375H17.7188C17.8928 18.375 18.0597 18.3058 18.1828 18.1828C18.3059 18.0597 18.375 17.8928 18.375 17.7187C18.375 17.5447 18.3059 17.3777 18.1828 17.2547C18.0597 17.1316 17.8928 17.0625 17.7188 17.0625ZM13.7812 3.55302L17.4469 7.21871L15.75 8.91557L12.0844 5.24996L13.7812 3.55302Z" fill="#2E2E2E"/>
</svg>
