<svg width="21" height="21" viewBox="0 0 21 21" fill="none" xmlns="http://www.w3.org/2000/svg">
<path d="M11.1562 2.625V5.25C11.1562 5.42405 11.0871 5.59097 10.964 5.71404C10.841 5.83711 10.674 5.90625 10.5 5.90625C10.326 5.90625 10.159 5.83711 10.036 5.71404C9.91289 5.59097 9.84375 5.42405 9.84375 5.25V2.625C9.84375 2.45095 9.91289 2.28403 10.036 2.16096C10.159 2.03789 10.326 1.96875 10.5 1.96875C10.674 1.96875 10.841 2.03789 10.964 2.16096C11.0871 2.28403 11.1562 2.45095 11.1562 2.625ZM18.375 9.84375H15.75C15.576 9.84375 15.409 9.91289 15.286 10.036C15.1629 10.159 15.0938 10.326 15.0938 10.5C15.0938 10.674 15.1629 10.841 15.286 10.964C15.409 11.0871 15.576 11.1562 15.75 11.1562H18.375C18.549 11.1562 18.716 11.0871 18.839 10.964C18.9621 10.841 19.0312 10.674 19.0312 10.5C19.0312 10.326 18.9621 10.159 18.839 10.036C18.716 9.91289 18.549 9.84375 18.375 9.84375ZM14.6764 13.7482C14.5533 13.6252 14.3864 13.556 14.2123 13.556C14.0383 13.556 13.8713 13.6252 13.7482 13.7482C13.6252 13.8713 13.556 14.0383 13.556 14.2123C13.556 14.3864 13.6252 14.5533 13.7482 14.6764L15.6044 16.5325C15.7274 16.6556 15.8944 16.7247 16.0684 16.7247C16.2425 16.7247 16.4094 16.6556 16.5325 16.5325C16.6556 16.4094 16.7247 16.2425 16.7247 16.0684C16.7247 15.8944 16.6556 15.7274 16.5325 15.6044L14.6764 13.7482ZM10.5 15.0938C10.326 15.0938 10.159 15.1629 10.036 15.286C9.9129 15.409 9.84376 15.576 9.84375 15.75V18.375C9.84375 18.549 9.91289 18.716 10.036 18.839C10.159 18.9621 10.326 19.0312 10.5 19.0312C10.674 19.0312 10.841 18.9621 10.964 18.839C11.0871 18.716 11.1562 18.549 11.1562 18.375V15.75C11.1562 15.576 11.0871 15.409 10.964 15.286C10.841 15.1629 10.674 15.0938 10.5 15.0938ZM6.32362 13.7482L4.4675 15.6044C4.34442 15.7274 4.27528 15.8944 4.27528 16.0684C4.27528 16.2425 4.34442 16.4094 4.4675 16.5325C4.59058 16.6556 4.75751 16.7247 4.93157 16.7247C5.10563 16.7247 5.27256 16.6556 5.39564 16.5325L7.25175 14.6764C7.37483 14.5533 7.44398 14.3864 7.44398 14.2123C7.44398 14.0383 7.37483 13.8713 7.25175 13.7483C7.12868 13.6252 6.96175 13.556 6.78769 13.556C6.61363 13.556 6.44669 13.6252 6.32362 13.7483V13.7482ZM5.90625 10.5C5.90624 10.326 5.8371 10.159 5.71403 10.036C5.59096 9.9129 5.42405 9.84376 5.25 9.84375H2.625C2.45095 9.84375 2.28403 9.91289 2.16096 10.036C2.03789 10.159 1.96875 10.326 1.96875 10.5C1.96875 10.674 2.03789 10.841 2.16096 10.964C2.28403 11.0871 2.45095 11.1562 2.625 11.1562H5.25C5.42405 11.1562 5.59096 11.0871 5.71403 10.964C5.8371 10.841 5.90624 10.674 5.90625 10.5ZM5.39564 4.4675C5.27256 4.34442 5.10563 4.27528 4.93157 4.27528C4.75751 4.27528 4.59058 4.34442 4.4675 4.4675C4.34442 4.59058 4.27528 4.75751 4.27528 4.93157C4.27528 5.10563 4.34442 5.27256 4.4675 5.39564L6.32362 7.25175C6.44678 7.37446 6.61359 7.44329 6.78744 7.44313C6.96129 7.44297 7.12798 7.37384 7.25091 7.25091C7.37384 7.12797 7.44297 6.96129 7.44313 6.78744C7.44329 6.61358 7.37446 6.44677 7.25175 6.32362L5.39564 4.4675Z" fill="#F04634"/>
</svg>
