<svg width="21" height="21" viewBox="0 0 21 21" fill="none" xmlns="http://www.w3.org/2000/svg">
<path d="M9.9424 12.9567C10.8229 12.3719 11.4917 11.5191 11.8499 10.5245C12.208 9.52997 12.2364 8.44655 11.931 7.43459C11.6255 6.42264 11.0024 5.53591 10.1537 4.90564C9.30513 4.27537 8.27616 3.93506 7.2191 3.93506C6.16204 3.93506 5.13307 4.27537 4.28446 4.90564C3.43585 5.53591 2.8127 6.42264 2.50722 7.43459C2.20175 8.44655 2.23019 9.52997 2.58834 10.5245C2.94648 11.5191 3.61529 12.3719 4.4958 12.9567C2.9948 13.5104 1.69751 14.5072 0.775887 15.815C0.706695 15.9133 0.665825 16.0287 0.657737 16.1486C0.64965 16.2685 0.674654 16.3884 0.730023 16.4951C0.785392 16.6018 0.868999 16.6912 0.971721 16.7536C1.07444 16.816 1.19234 16.849 1.31254 16.849L13.1254 16.8486C13.2456 16.8486 13.3635 16.8156 13.4662 16.7531C13.5689 16.6907 13.6525 16.6013 13.7079 16.4946C13.7632 16.3879 13.7882 16.268 13.7801 16.1481C13.772 16.0282 13.7311 15.9128 13.6619 15.8145C12.7403 14.507 11.4432 13.5104 9.9424 12.9567Z" fill="#2E2E2E"/>
<path d="M20.3483 15.8144C19.4267 14.5069 18.1295 13.5103 16.6287 12.9566C17.6045 12.3071 18.3164 11.3306 18.6364 10.2029C18.9563 9.07519 18.8633 7.87032 18.374 6.80509C17.8848 5.73987 17.0314 4.88424 15.9675 4.39216C14.9035 3.90009 13.6989 3.80389 12.5704 4.12087C12.4679 4.14969 12.374 4.20299 12.2967 4.27618C12.2195 4.34937 12.1612 4.44025 12.1269 4.54099C12.0925 4.64174 12.0832 4.74931 12.0997 4.85445C12.1163 4.95959 12.1581 5.05913 12.2217 5.1445C12.9635 6.14102 13.39 7.33683 13.4461 8.57789C13.5023 9.81894 13.1855 11.0484 12.5367 12.1078C12.451 12.2475 12.4207 12.4143 12.4518 12.5752C12.4828 12.7361 12.573 12.8796 12.7045 12.9774C12.9533 13.1626 13.1927 13.3601 13.4217 13.5693C13.4336 13.5821 13.4455 13.5949 13.4585 13.607C14.3344 14.4168 15.0443 15.3893 15.5486 16.4703C15.6014 16.5835 15.6855 16.6792 15.7908 16.7463C15.8961 16.8133 16.0184 16.849 16.1433 16.8489L19.8118 16.8485C19.932 16.8485 20.0499 16.8154 20.1526 16.753C20.2553 16.6906 20.3389 16.6011 20.3942 16.4945C20.4496 16.3878 20.4746 16.2679 20.4665 16.148C20.4584 16.0281 20.4175 15.9127 20.3483 15.8144L20.3483 15.8144Z" fill="#2E2E2E"/>
</svg>
